# xmcd CD database file
#
# Track frame offsets:
#	150
#	17707
#	35440
#	51642
#	67630
#	83065
#
# Disc length: 1371 seconds
#
# Revision: 0
# Processed by: cddbd v1.5.1PL2 Copyright (c) Steve Scherf et al.
# Submitted via: CD2WAV32(JP) R3.22
#
DISCID=43055906
DTITLE=清水香里 - Pure
DYEAR=2002
DGENRE=JPop
TTITLE0=earth
TTITLE1=バニラ
TTITLE2=好きじゃないっ
TTITLE3=カワラナイバショ
TTITLE4=In my life
TTITLE5=いつもそばで…
EXTD=
EXTT0=
EXTT1=
EXTT2=
EXTT3=
EXTT4=
EXTT5=
PLAYORDER=
